{
  "accessors": [
    {
      "name": "Node-Mesh_0_positions",
      "componentType": 5126,
      "count": 1610,
      "min": [
        -0.8385800123214722,
        0.3013879954814911,
        -1.306825041770935
      ],
      "max": [
        0.8727440237998962,
        1.245048999786377,
        1.2841190099716187
      ],
      "type": "VEC3",
      "bufferView": 0,
      "byteOffset": 0
    },
    {
      "name": "Node-Mesh_0_texcoords",
      "componentType": 5126,
      "count": 1610,
      "min": [
        0,
        0
      ],
      "max": [
        1,
        1
      ],
      "type": "VEC2",
      "bufferView": 1,
      "byteOffset": 0
    },
    {
      "name": "Node-Mesh_0_indices",
      "componentType": 5123,
      "count": 7704,
      "min": [
        0
      ],
      "max": [
        1609
      ],
      "type": "SCALAR",
      "bufferView": 2,
      "byteOffset": 0
    },
    {
      "name": "Node-Mesh_1_positions",
      "componentType": 5126,
      "count": 138,
      "min": [
        -0.8412230014801025,
        0.37700799107551575,
        -0.0757019966840744
      ],
      "max": [
        0.8502609729766846,
        1.0894540548324585,
        1.2642749547958374
      ],
      "type": "VEC3",
      "bufferView": 0,
      "byteOffset": 19320
    },
    {
      "name": "Node-Mesh_1_texcoords",
      "componentType": 5126,
      "count": 138,
      "min": [
        0.03616800159215927,
        0.03544799983501434
      ],
      "max": [
        0.6316289901733398,
        0.4068729877471924
      ],
      "type": "VEC2",
      "bufferView": 1,
      "byteOffset": 12880
    },
    {
      "name": "Node-Mesh_1_indices",
      "componentType": 5123,
      "count": 516,
      "min": [
        0
      ],
      "max": [
        137
      ],
      "type": "SCALAR",
      "bufferView": 2,
      "byteOffset": 15408
    }
  ],
  "asset": {
    "generator": "obj2gltf",
    "version": "2.0"
  },
  "buffers": [
    {
      "uri": "Hand_data.bin",
      "byteLength": 51400
    }
  ],
  "bufferViews": [
    {
      "name": "bufferView_0",
      "buffer": 0,
      "byteLength": 20976,
      "byteOffset": 0,
      "byteStride": 12,
      "target": 34962
    },
    {
      "name": "bufferView_1",
      "buffer": 0,
      "byteLength": 13984,
      "byteOffset": 20976,
      "byteStride": 8,
      "target": 34962
    },
    {
      "name": "bufferView_2",
      "buffer": 0,
      "byteLength": 16440,
      "byteOffset": 34960,
      "target": 34963
    }
  ],
  "materials": [
    {
      "name": "hand:lambert2SG",
      "pbrMetallicRoughness": {
        "baseColorFactor": [
          0.6,
          0.33,
          0.21,
          1
        ],
        "metallicFactor": 0,
        "roughnessFactor": 1
      },
      "emissiveFactor": [
        0,
        0,
        0
      ],
      "alphaMode": "OPAQUE",
      "doubleSided": false
    },
    {
      "name": "hand:lambert1SG",
      "pbrMetallicRoughness": {
        "baseColorFactor": [
          0.75,
          0.53,
          0.44,
          1
        ],
        "metallicFactor": 0,
        "roughnessFactor": 1
      },
      "emissiveFactor": [
        0,
        0,
        0
      ],
      "alphaMode": "OPAQUE",
      "doubleSided": false
    }
  ],
  "meshes": [
    {
      "name": "Node-Mesh",
      "primitives": [
        {
          "attributes": {
            "POSITION": 0,
            "TEXCOORD_0": 1
          },
          "indices": 2,
          "material": 0,
          "mode": 4
        },
        {
          "attributes": {
            "POSITION": 3,
            "TEXCOORD_0": 4
          },
          "indices": 5,
          "material": 1,
          "mode": 4
        }
      ]
    }
  ],
  "nodes": [
    {
      "name": "Node",
      "mesh": 0
    }
  ],
  "scene": 0,
  "scenes": [
    {
      "nodes": [
        0
      ]
    }
  ]
}